# Blender v3.0.0 OBJ File: 'untitled.blend'
# www.blender.org
mtllib tesseract.mtl
o Cube.004_Cube.008
v 1.000000 1.000000 -1.000000
v 0.800000 0.800000 -1.000000
v 0.800000 1.000000 -0.800000
v 1.000000 0.800000 -0.800000
v 0.373471 0.573471 -0.373471
v 0.573471 0.373471 -0.373471
v 0.373471 0.373471 -0.573471
v 0.373471 0.373471 -0.373548
v -1.000000 1.000000 -1.000000
v -0.800000 0.800000 -1.000000
v -0.800000 1.000000 -0.800000
v -1.000000 0.800000 -0.800000
v -0.373471 0.573471 -0.373471
v -0.573471 0.373471 -0.373471
v -0.373471 0.373471 -0.573471
v -0.373471 0.373471 -0.373548
v 1.000000 1.000000 1.000000
v 0.800000 0.800000 1.000000
v 0.800000 1.000000 0.800000
v 1.000000 0.800000 0.800000
v 0.373471 0.573471 0.373471
v 0.573471 0.373471 0.373471
v 0.373471 0.373471 0.573471
v 0.373471 0.373471 0.373548
v -1.000000 1.000000 1.000000
v -0.800000 0.800000 1.000000
v -0.800000 1.000000 0.800000
v -1.000000 0.800000 0.800000
v -0.373471 0.573471 0.373471
v -0.573471 0.373471 0.373471
v -0.373471 0.373471 0.573471
v -0.373471 0.373471 0.373548
v 1.000000 -1.000000 -1.000000
v 0.800000 -0.800000 -1.000000
v 0.800000 -1.000000 -0.800000
v 1.000000 -0.800000 -0.800000
v 0.373471 -0.573471 -0.373471
v 0.573471 -0.373471 -0.373471
v 0.373471 -0.373471 -0.573471
v 0.373471 -0.373471 -0.373548
v -1.000000 -1.000000 -1.000000
v -0.800000 -0.800000 -1.000000
v -0.800000 -1.000000 -0.800000
v -1.000000 -0.800000 -0.800000
v -0.373471 -0.573471 -0.373471
v -0.573471 -0.373471 -0.373471
v -0.373471 -0.373471 -0.573471
v -0.373471 -0.373471 -0.373548
v 1.000000 -1.000000 1.000000
v 0.800000 -0.800000 1.000000
v 0.800000 -1.000000 0.800000
v 1.000000 -0.800000 0.800000
v 0.373471 -0.573471 0.373471
v 0.573471 -0.373471 0.373471
v 0.373471 -0.373471 0.573471
v 0.373471 -0.373471 0.373548
v -1.000000 -1.000000 1.000000
v -0.800000 -0.800000 1.000000
v -0.800000 -1.000000 0.800000
v -1.000000 -0.800000 0.800000
v -0.373471 -0.573471 0.373471
v -0.573471 -0.373471 0.373471
v -0.373471 -0.373471 0.573471
v -0.373471 -0.373471 0.373548
vt 0.000000 0.000000
vt 0.000000 0.000000
vt 0.000000 0.000000
vt 0.000000 0.000000
vt 0.000000 0.000000
vt 0.000000 0.000000
vt 0.000000 0.000000
vt 0.000000 0.000000
vt 0.000000 0.000000
vt 0.000000 0.000000
vt 0.000000 0.000000
vt 0.000000 0.000000
vt 0.000000 0.000000
vt 0.000000 0.000000
vt 0.000000 0.000000
vt 0.000000 0.000000
vt 0.000000 0.000000
vt 0.000000 0.000000
vt 0.000000 0.000000
vt 0.000000 0.000000
vt 0.000000 0.000000
vt 0.000000 0.000000
vt 0.000000 0.000000
vt 0.000000 0.000000
vt 0.000000 0.000000
vt 0.000000 0.000000
vt 0.000000 0.000000
vt 0.000000 0.000000
vt 0.000000 0.000000
vt 0.000000 0.000000
vt 0.000000 0.000000
vt 0.000000 0.000000
vt 0.000000 0.000000
vt 0.000000 0.000000
vt 0.000000 0.000000
vt 0.000000 0.000000
vt 0.000000 0.000000
vt 0.000000 0.000000
vt 0.000000 0.000000
vt 0.000000 0.000000
vt 0.000000 0.000000
vt 0.000000 0.000000
vt 0.000000 0.000000
vt 0.000000 0.000000
vt 0.000000 0.000000
vt 0.000000 0.000000
vt 0.000000 0.000000
vt 0.000000 0.000000
vt 0.000000 0.000000
vt 0.000000 0.000000
vt 0.000000 0.000000
vt 0.000000 0.000000
vt 0.000000 0.000000
vt 0.000000 0.000000
vt 0.000000 0.000000
vt 0.000000 0.000000
vt 0.000000 0.000000
vt 0.000000 0.000000
vt 0.000000 0.000000
vt 0.000000 0.000000
vt 0.000000 0.000000
vt 0.000000 0.000000
vt 0.000000 0.000000
vt 0.000000 0.000000
vn -0.7071 0.0000 0.7071
vn 1.0000 0.0000 0.0000
vn 0.0000 0.0000 -1.0000
vn 0.0000 1.0000 0.0000
vn 0.7071 0.0000 -0.7071
vn 0.0000 -1.0000 0.0000
vn -0.7071 0.0000 -0.7071
vn 0.4082 -0.8165 -0.4082
vn -0.8165 0.4082 -0.4082
vn 0.4082 0.4082 0.8165
vn -0.0004 0.0000 1.0000
vn 0.0004 0.0000 -1.0000
vn -1.0000 -0.0000 0.0000
vn 0.0000 0.0004 1.0000
vn -0.7071 -0.7071 0.0000
vn -0.4082 -0.8165 -0.4082
vn 0.8165 0.4082 -0.4082
vn -0.4082 0.4082 0.8165
vn 0.0000 -0.7071 -0.7071
vn 0.0000 -0.0004 1.0000
vn 0.7071 -0.7071 0.0000
vn 0.0000 0.0000 1.0000
vn 0.0000 0.7071 -0.7071
vn 0.4082 -0.8165 0.4082
vn -0.8165 0.4082 0.4082
vn 0.4082 0.4082 -0.8165
vn 0.7071 0.0000 0.7071
vn 0.0000 -0.7071 0.7071
vn -0.0004 0.0000 -1.0000
vn -0.7071 0.7071 0.0000
vn 0.0000 0.7071 0.7071
vn -0.4082 -0.8165 0.4082
vn 0.8165 0.4082 0.4082
vn -0.4082 0.4082 -0.8165
vn 0.0004 0.0000 1.0000
vn 0.4082 0.8165 -0.4082
vn -0.8165 -0.4082 -0.4082
vn 0.4082 -0.4082 0.8165
vn 0.7071 0.7071 0.0000
vn -0.4082 0.8165 -0.4082
vn 0.8165 -0.4082 -0.4082
vn -0.4082 -0.4082 0.8165
vn 0.4082 0.8165 0.4082
vn -0.8165 -0.4082 0.4082
vn 0.4082 -0.4082 -0.8165
vn 0.0000 0.0004 -1.0000
vn -0.4082 0.8165 0.4082
vn 0.8165 -0.4082 0.4082
vn -0.4082 -0.4082 -0.8165
vn 0.0000 -0.0004 -1.0000
usemtl None
s off
f 4/1/1 2/2/1 34/3/1 36/4/1
f 33/5/2 1/6/2 4/1/2 36/4/2
f 9/7/3 1/6/3 2/2/3 10/8/3
f 3/9/4 19/10/4 17/11/4 1/6/4
f 39/12/5 7/13/5 6/14/5 38/15/5
f 39/12/4 47/16/4 48/17/4 40/18/4
f 6/14/6 22/19/6 24/20/6 8/21/6
f 18/22/7 20/23/7 52/24/7 50/25/7
f 2/2/8 4/1/8 6/14/8 7/13/8
f 3/9/9 2/2/9 7/13/9 5/26/9
f 4/1/10 3/9/10 5/26/10 6/14/10
f 40/18/4 56/27/4 54/28/4 38/15/4
f 47/16/7 46/29/7 14/30/7 15/31/7
f 2/2/3 1/6/3 33/5/3 34/3/3
f 8/21/11 40/18/11 38/15/11 6/14/11
f 32/32/12 64/33/12 62/34/12 30/35/12
f 13/36/2 29/37/2 32/32/2 16/38/2
f 8/21/13 24/20/13 21/39/13 5/26/13
f 40/18/14 48/17/14 45/40/14 37/41/14
f 8/21/6 16/38/6 15/31/6 7/13/6
f 16/38/2 48/17/2 47/16/2 15/31/2
f 4/1/15 20/23/15 19/10/15 3/9/15
f 57/42/13 25/43/13 28/44/13 60/45/13
f 25/43/13 9/7/13 12/46/13 28/44/13
f 28/44/5 26/47/5 58/48/5 60/45/5
f 9/7/3 10/8/3 42/49/3 41/50/3
f 10/8/16 15/31/16 14/30/16 12/46/16
f 11/51/17 13/36/17 15/31/17 10/8/17
f 12/46/18 14/30/18 13/36/18 11/51/18
f 63/52/1 31/53/1 30/35/1 62/34/1
f 45/40/19 47/16/19 39/12/19 37/41/19
f 5/26/20 13/36/20 16/38/20 8/21/20
f 11/51/21 27/54/21 28/44/21 12/46/21
f 9/7/4 25/43/4 27/54/4 11/51/4
f 49/55/2 33/5/2 36/4/2 52/24/2
f 25/43/22 26/47/22 18/22/22 17/11/22
f 26/47/19 27/54/19 19/10/19 18/22/19
f 3/9/4 1/6/4 9/7/4 11/51/4
f 57/42/22 49/55/22 50/25/22 58/48/22
f 13/36/23 5/26/23 7/13/23 15/31/23
f 17/11/22 18/22/22 50/25/22 49/55/22
f 18/22/24 23/56/24 22/19/24 20/23/24
f 19/10/25 21/39/25 23/56/25 18/22/25
f 20/23/26 22/19/26 21/39/26 19/10/26
f 26/47/22 25/43/22 57/42/22 58/48/22
f 10/8/27 12/46/27 44/57/27 42/49/27
f 10/8/28 2/2/28 3/9/28 11/51/28
f 7/13/13 39/12/13 40/18/13 8/21/13
f 22/19/29 54/28/29 56/27/29 24/20/29
f 55/58/27 54/28/27 22/19/27 23/56/27
f 30/35/30 29/37/30 13/36/30 14/30/30
f 29/37/31 31/53/31 23/56/31 21/39/31
f 26/47/32 28/44/32 30/35/32 31/53/32
f 27/54/33 26/47/33 31/53/33 29/37/33
f 28/44/34 27/54/34 29/37/34 30/35/34
f 37/41/13 53/59/13 56/27/13 40/18/13
f 16/38/6 32/32/6 30/35/6 14/30/6
f 46/29/4 62/34/4 64/33/4 48/17/4
f 33/5/6 35/60/6 43/61/6 41/50/6
f 57/42/13 60/45/13 44/57/13 41/50/13
f 33/5/6 49/55/6 51/62/6 35/60/6
f 49/55/2 52/24/2 20/23/2 17/11/2
f 58/48/23 50/25/23 51/62/23 59/63/23
f 14/30/35 46/29/35 48/17/35 16/38/35
f 34/3/36 39/12/36 38/15/36 36/4/36
f 35/60/37 37/41/37 39/12/37 34/3/37
f 36/4/38 38/15/38 37/41/38 35/60/38
f 61/64/28 53/59/28 55/58/28 63/52/28
f 41/50/3 42/49/3 34/3/3 33/5/3
f 54/28/21 53/59/21 37/41/21 38/15/21
f 42/49/31 43/61/31 35/60/31 34/3/31
f 23/56/6 31/53/6 32/32/6 24/20/6
f 62/34/15 46/29/15 45/40/15 61/64/15
f 22/19/39 6/14/39 5/26/39 21/39/39
f 42/49/40 44/57/40 46/29/40 47/16/40
f 43/61/41 42/49/41 47/16/41 45/40/41
f 44/57/42 43/61/42 45/40/42 46/29/42
f 41/50/13 44/57/13 12/46/13 9/7/13
f 44/57/39 60/45/39 59/63/39 43/61/39
f 48/17/2 64/33/2 61/64/2 45/40/2
f 51/62/6 49/55/6 57/42/6 59/63/6
f 43/61/6 59/63/6 57/42/6 41/50/6
f 56/27/4 64/33/4 63/52/4 55/58/4
f 50/25/43 52/24/43 54/28/43 55/58/43
f 51/62/44 50/25/44 55/58/44 53/59/44
f 52/24/45 51/62/45 53/59/45 54/28/45
f 53/59/46 61/64/46 64/33/46 56/27/46
f 24/20/13 56/27/13 55/58/13 23/56/13
f 31/53/2 63/52/2 64/33/2 32/32/2
f 58/48/47 63/52/47 62/34/47 60/45/47
f 59/63/48 61/64/48 63/52/48 58/48/48
f 60/45/49 62/34/49 61/64/49 59/63/49
f 17/11/2 20/23/2 4/1/2 1/6/2
f 17/11/4 19/10/4 27/54/4 25/43/4
f 35/60/30 51/62/30 52/24/30 36/4/30
f 24/20/50 32/32/50 29/37/50 21/39/50
